<svg version="1.1" xmlns="http://www.w3.org/2000/svg" xmlns:xlink="http://www.w3.org/1999/xlink" width="29" height="27"><defs/><g><path fill="rgb(69,65,62)" stroke="none" paint-order="stroke fill markers" fill-rule="evenodd" d=" M 22.340835571289062 3.6429755687713623 C 22.340835571289062 3.6429755687713623 25.125946044921875 23.357240736484528 25.125946044921875 23.357240736484528 C 25.125946044921875 23.357240736484528 2.8726043701171875 23.357240736484528 2.8726043701171875 23.357240736484528 C 2.8726043701171875 23.357240736484528 5.65924072265625 3.6429755687713623 5.65924072265625 3.6429755687713623 C 5.65924072265625 3.6429755687713623 22.340835571289062 3.6429755687713623 22.340835571289062 3.6429755687713623 C 22.340835571289062 3.6429755687713623 22.340835571289062 3.6429755687713623 22.340835571289062 3.6429755687713623 M 23.75006103515625 1.9996535778045654 C 23.75006103515625 1.9996535778045654 4.2500152587890625 1.9996535778045654 4.2500152587890625 1.9996535778045654 C 4.2500152587890625 1.9996535778045654 1.0000457763671875 25.00017660856247 1.0000457763671875 25.00017660856247 C 1.0000457763671875 25.00017660856247 27.000030517578125 25.00017660856247 27.000030517578125 25.00017660856247 C 27.000030517578125 25.00017660856247 23.75006103515625 1.9996535778045654 23.75006103515625 1.9996535778045654 C 23.75006103515625 1.9996535778045654 23.75006103515625 1.9996535778045654 23.75006103515625 1.9996535778045654 Z M 20.500015258789062 6.928654253482819 C 20.500015258789062 6.020309567451477 19.773239135742188 5.285139203071594 18.875030517578125 5.285139203071594 C 17.976821899414062 5.285139203071594 17.250045776367188 6.020309567451477 17.250045776367188 6.928654253482819 C 17.250045776367188 7.49007111787796 17.546829223632812 7.961715340614319 17.97369384765625 8.258833825588226 C 17.580093383789062 11.208975195884705 15.921844482421875 13.499818563461304 14.000076293945312 13.499818563461304 C 12.079910278320312 13.499818563461304 10.41998291015625 11.208975195884705 10.026382446289062 8.258833825588226 C 10.453323364257812 7.961715340614319 10.750030517578125 7.49007111787796 10.750030517578125 6.928654253482819 C 10.750030517578125 6.020309567451477 10.023178100585938 5.285139203071594 9.125045776367188 5.285139203071594 C 8.226837158203125 5.285139203071594 7.50006103515625 6.020309567451477 7.50006103515625 6.928654253482819 C 7.50006103515625 7.5732797384262085 7.877716064453125 8.118672668933868 8.4110107421875 8.387411415576935 C 8.877471923828125 12.270995199680328 11.15789794921875 15.1431405544281 14.000076293945312 15.1431405544281 C 16.842254638671875 15.1431405544281 19.122604370117188 12.270995199680328 19.589141845703125 8.387411415576935 C 20.12396240234375 8.118672668933868 20.500015258789062 7.5732797384262085 20.500015258789062 6.928654253482819 Z"/></g></svg>