<svg width="58.996" height="67.003" xmlns="http://www.w3.org/2000/svg"><path d="M.09 10.43c.061.381.153.758.275 1.126a1.944 1.944 0 0 0 3.691-1.217 3.358 3.358 0 0 1 3.185-4.404c1.448 0 2.733.928 3.19 2.302l13.778 41.729a9.472 9.472 0 0 1 4.145.157L14.123 7.02a7.256 7.256 0 0 0-8.025-4.879 7.271 7.271 0 0 0-1.123.274C1.554 3.542-.463 6.985.09 10.43zm50.459 5.701l7.917 23.976a.978.978 0 0 1 .05.304c-.001.42-.27.791-.668.922l-24.919 8.215a.98.98 0 0 1-.305.05.972.972 0 0 1-.922-.668l-7.918-23.976a.97.97 0 0 1 .619-1.226l24.918-8.215a.98.98 0 0 1 .305-.05c.42 0 .791.27.923.668zm-10.7-.377L34.787.426a.622.622 0 0 0-.785-.395l-4.34 1.43-.021.04-.037-.02-2.29.755 1.886 5.71-2.583.852-1.886-5.71-2.29.754-.018.038-.04-.019-4.312 1.422a.62.62 0 0 0-.396.784l5.062 15.33a.622.622 0 0 0 .785.394l15.931-5.252a.622.622 0 0 0 .396-.785zm16.593 29.614l-23.32 7.688a9.507 9.507 0 0 1 1.9 3.315c.015.045.024.091.038.136l22.6-7.45a1.943 1.943 0 0 0 1.237-2.453 1.944 1.944 0 0 0-2.455-1.236zm-9.19-15.31l-8.484-4.664-4.04 8.793 2.675 1.23 1.746-3.804 3.154 9.55 3.018-.995-3.153-9.549 3.668 2.018 1.417-2.579zM33.46 58.121a7.638 7.638 0 0 0-9.926-5.995 7.633 7.633 0 0 0-5.14 8.495 7.638 7.638 0 0 0 9.925 5.995 7.63 7.63 0 0 0 5.141-8.495zm-3.908.055a3.818 3.818 0 0 0-7.25 2.39 3.819 3.819 0 0 0 7.392-1.818 3.84 3.84 0 0 0-.142-.572z" fill="#84bc22" fill-rule="evenodd"/></svg>