<svg version="1.1" xmlns="http://www.w3.org/2000/svg" xmlns:xlink="http://www.w3.org/1999/xlink" width="27" height="24"><defs/><g><path fill="rgb(69,65,62)" stroke="none" paint-order="stroke fill markers" fill-rule="evenodd" d=" M 19.29449462890625 1.000232756137848 C 17.727493286132812 1.000232756137848 16.201614379882812 1.5813416838645935 15.000747680664062 2.63699072599411 C 14.237884521484375 3.308065354824066 13.803085327148438 3.5818236470222473 13.500274658203125 3.5818236470222473 C 13.19769287109375 3.5818236470222473 12.762741088867188 3.308065354824066 11.998428344726562 2.63699072599411 C 10.797866821289062 1.5813416838645935 9.27313232421875 1.000232756137848 7.705291748046875 1.000232756137848 C 4.008392333984375 1.000232756137848 1.0005035400390625 4.159843623638153 1.0005035400390625 8.044778823852539 C 1.0005035400390625 10.240636944770813 1.9926300048828125 11.901913464069366 2.876953125 13.131122946739197 C 2.876953125 13.131122946739197 8.881668090820312 20.817977786064148 8.881668090820312 20.817977786064148 C 9.9637451171875 22.202020943164825 11.497482299804688 22.99781197309494 13.08905029296875 22.99781197309494 C 14.6146240234375 22.99781197309494 16.058181762695312 22.294303357601166 17.153457641601562 21.017987370491028 C 17.153457641601562 21.017987370491028 23.90997314453125 13.135756373405457 23.90997314453125 13.135756373405457 C 24.88287353515625 11.905774652957916 25.998748779296875 10.215925335884094 25.998748779296875 8.044778823852539 C 25.998748779296875 4.159843623638153 22.990859985351562 1.000232756137848 19.29449462890625 1.000232756137848 Z M 22.684844970703125 12.021417260169983 C 22.684844970703125 12.021417260169983 15.948928833007812 19.878357470035553 15.948928833007812 19.878357470035553 C 15.165390014648438 20.791528642177582 14.150299072265625 21.295220732688904 13.089813232421875 21.295220732688904 C 11.968597412109375 21.295220732688904 10.919479370117188 20.741333186626434 10.13494873046875 19.738196313381195 C 10.13494873046875 19.738196313381195 4.150299072265625 12.078176736831665 4.150299072265625 12.078176736831665 C 3.438323974609375 11.088167905807495 2.6212921142578125 9.734821200370789 2.6212921142578125 8.045358002185822 C 2.6212921142578125 5.0996569991111755 4.9018707275390625 2.7028239965438843 7.705291748046875 2.7028239965438843 C 8.89349365234375 2.7028239965438843 10.048431396484375 3.1428064703941345 10.958236694335938 3.9426517486572266 C 11.9254150390625 4.7928855419158936 12.651657104492188 5.284607946872711 13.500274658203125 5.284607946872711 C 14.348663330078125 5.284607946872711 15.074676513671875 4.7928855419158936 16.041778564453125 3.9426517486572266 C 16.951889038085938 3.143771767616272 18.106292724609375 2.7028239965438843 19.29449462890625 2.7028239965438843 C 22.098220825195312 2.7028239965438843 24.378494262695312 5.0996569991111755 24.378494262695312 8.044778823852539 C 24.378494262695312 9.661458611488342 23.512176513671875 10.975035071372986 22.684844970703125 12.021417260169983 Z"/></g></svg>