<svg version="1.1" xmlns="http://www.w3.org/2000/svg" xmlns:xlink="http://www.w3.org/1999/xlink" width="27" height="27"><defs/><g><path fill="rgb(69,65,62)" stroke="none" paint-order="stroke fill markers" fill-rule="evenodd" d=" M 16.375106811523438 1.999460518360138 C 11.611846923828125 1.999460518360138 7.75 5.861421644687653 7.75 10.624584257602692 C 7.75 12.081217765808105 8.114227294921875 13.451553702354431 8.752655029296875 14.655665457248688 C 8.752655029296875 14.655665457248688 2.75518798828125 20.651319563388824 2.75518798828125 20.651319563388824 C 2.75518798828125 20.651319563388824 2.7604522705078125 20.6553738117218 2.7604522705078125 20.6553738117218 C 2.29193115234375 21.115820586681366 1.9999542236328125 21.754268169403076 1.9999542236328125 22.463375508785248 C 1.9999542236328125 23.8647940158844 3.1356658935546875 25.000369668006897 4.5362701416015625 25.000369668006897 C 5.2445068359375 25.000369668006897 5.88323974609375 24.70846378803253 6.34405517578125 24.239522397518158 C 6.34405517578125 24.239522397518158 6.342681884765625 24.238170981407166 6.342681884765625 24.238170981407166 C 6.342681884765625 24.238170981407166 12.337631225585938 18.24406135082245 12.337631225585938 18.24406135082245 C 13.54254150390625 18.88405340909958 14.915145874023438 19.24932187795639 16.375106811523438 19.24932187795639 C 21.138214111328125 19.24932187795639 25.000137329101562 15.388132989406586 25.000137329101562 10.624584257602692 C 25.000137329101562 5.861421644687653 21.138214111328125 1.999460518360138 16.375106811523438 1.999460518360138 Z M 5.4463043212890625 23.340637624263763 C 5.2149810791015625 23.581189692020416 4.894317626953125 23.731196880340576 4.5362701416015625 23.731196880340576 C 3.8358154296875 23.731196880340576 3.2679595947265625 23.164374351501465 3.2679595947265625 22.463375508785248 C 3.2679595947265625 22.10563635826111 3.4188690185546875 21.78554379940033 3.658203125 21.55329328775406 C 3.658203125 21.55329328775406 3.6515655517578125 21.54769456386566 3.6515655517578125 21.54769456386566 C 3.6515655517578125 21.54769456386566 9.448989868164062 15.749926388263702 9.448989868164062 15.749926388263702 C 9.955734252929688 16.433549880981445 10.55975341796875 17.037246763706207 11.241592407226562 17.545186161994934 C 11.241592407226562 17.545186161994934 5.4463043212890625 23.340637624263763 5.4463043212890625 23.340637624263763 Z M 16.375106811523438 17.812959611415863 C 12.40606689453125 17.812959611415863 9.187454223632812 14.59388643503189 9.187454223632812 10.625163435935974 C 9.187454223632812 6.65624737739563 12.40606689453125 3.43775337934494 16.375106811523438 3.43775337934494 C 20.34368896484375 3.43775337934494 23.562606811523438 6.65624737739563 23.562606811523438 10.625163435935974 C 23.562606811523438 14.59388643503189 20.34368896484375 17.812959611415863 16.375106811523438 17.812959611415863 Z M 16.375106811523438 5.593455135822296 C 13.595489501953125 5.593455135822296 11.34375 7.846458852291107 11.34375 10.624584257602692 C 11.34375 10.823049366474152 11.504806518554688 10.984060943126678 11.703094482421875 10.984060943126678 C 11.901458740234375 10.984060943126678 12.062515258789062 10.823049366474152 12.062515258789062 10.624584257602692 C 12.062515258789062 8.243389070034027 13.992752075195312 6.312215447425842 16.375106811523438 6.312215447425842 C 16.573013305664062 6.312215447425842 16.734451293945312 6.151203870773315 16.734451293945312 5.952545702457428 C 16.734451293945312 5.7542736530303955 16.573013305664062 5.593455135822296 16.375106811523438 5.593455135822296 Z"/></g></svg>