<svg version="1.1" xmlns="http://www.w3.org/2000/svg" xmlns:xlink="http://www.w3.org/1999/xlink" width="27" height="27"><defs/><g><path fill="rgb(69,65,62)" stroke="none" paint-order="stroke fill markers" fill-rule="evenodd" d=" M 13.500045776367188 17.812187373638153 C 17.067169189453125 17.812187373638153 19.968856811523438 14.265106201171875 19.968856811523438 9.906017005443573 C 19.968856811523438 5.547700047492981 17.066482543945312 1.9996535778045654 13.500045776367188 1.9996535778045654 C 11.74139404296875 1.9996535778045654 10.097488403320312 2.8437094688415527 8.872665405273438 4.37544310092926 C 7.6846923828125 5.859491050243378 7.0312347412109375 7.824836194515228 7.0312347412109375 9.906596183776855 C 7.0312347412109375 14.265106201171875 9.93292236328125 17.812187373638153 13.500045776367188 17.812187373638153 Z M 13.500045776367188 3.4379464387893677 C 16.274017333984375 3.4379464387893677 18.531326293945312 6.339629888534546 18.531326293945312 9.906596183776855 C 18.531326293945312 13.47317636013031 16.274017333984375 16.375825107097626 13.500045776367188 16.375825107097626 C 10.726455688476562 16.375825107097626 8.468765258789062 13.47317636013031 8.468002319335938 9.906596183776855 C 8.468002319335938 6.339629888534546 10.725692749023438 3.4379464387893677 13.500045776367188 3.4379464387893677 Z M 18.531326293945312 16.375052869319916 C 18.134063720703125 16.375052869319916 17.81256103515625 16.69630378484726 17.81256103515625 17.093620121479034 C 17.81256103515625 17.491129517555237 18.134063720703125 17.812187373638153 18.531326293945312 17.812187373638153 C 21.3052978515625 17.812187373638153 23.562606811523438 20.069631457328796 23.562606811523438 22.84389567375183 C 23.562606811523438 23.239667534828186 23.239730834960938 23.562655985355377 22.843917846679688 23.562655985355377 C 22.843917846679688 23.562655985355377 4.1561737060546875 23.562655985355377 4.1561737060546875 23.562655985355377 C 3.760284423828125 23.562655985355377 3.4374847412109375 23.239667534828186 3.4374847412109375 22.84389567375183 C 3.4374847412109375 20.069631457328796 5.695098876953125 17.812187373638153 8.468765258789062 17.812187373638153 C 8.8663330078125 17.812187373638153 9.187530517578125 17.491129517555237 9.187530517578125 17.093620121479034 C 9.187530517578125 16.69630378484726 8.8663330078125 16.375052869319916 8.468765258789062 16.375052869319916 C 4.901641845703125 16.375052869319916 1.9999542236328125 19.276736319065094 1.9999542236328125 22.84389567375183 C 1.9999542236328125 24.032755732536316 2.9675140380859375 25.000369668006897 4.1561737060546875 25.000369668006897 C 4.1561737060546875 25.000369668006897 22.843917846679688 25.000369668006897 22.843917846679688 25.000369668006897 C 24.032882690429688 25.000369668006897 25.000137329101562 24.032755732536316 25.000137329101562 22.84389567375183 C 25.000137329101562 19.277315497398376 22.09844970703125 16.375052869319916 18.531326293945312 16.375052869319916 Z"/></g></svg>