<svg width="54.999" height="67" xmlns="http://www.w3.org/2000/svg"><path d="M28.157 60.298H3.863a3.844 3.844 0 0 1-3.86-3.828V10.527a4.17 4.17 0 0 1 .548-2.036c.605-1.077 1.593-1.793 2.347-1.793h7.82a4.782 4.782 0 0 0 4.695 5.743h12.601a4.794 4.794 0 0 0 4.701-5.743H38.6a6.813 6.813 0 0 1 1.89.249c1.9.549 2.935 1.945 2.935 3.58V39.29a32.44 32.44 0 0 1-.23-.015c-.244-.02-.49-.031-.735-.034a15.47 15.47 0 0 0-3.86.504V17.227H4.83v38.286h22.24a15.092 15.092 0 0 0 1.088 4.785zM42.46 42.113c-6.928 0-12.544 5.57-12.544 12.443 0 6.871 5.616 12.442 12.544 12.442 6.9.028 12.515-5.543 12.543-12.442-.028-6.9-5.643-12.47-12.543-12.443zm-8.684-17.229H8.688a.961.961 0 0 1-.965-.957v-.957c0-.529.432-.957.965-.957h25.087a.961.961 0 0 1 .965.957v.957a.961.961 0 0 1-.965.957zm0 8.614H8.688a.961.961 0 0 1-.965-.957v-.957c0-.528.432-.957.965-.957h25.087c.533 0 .965.429.965.957v.957a.961.961 0 0 1-.965.957zm-5.76-28.714h-1.487a1.432 1.432 0 0 1-1.437-1.426V3.31a3.325 3.325 0 0 0-3.339-3.311h-.077a3.325 3.325 0 0 0-3.338 3.311v.048a1.432 1.432 0 0 1-1.438 1.426h-1.486c-1.583 0-2.866 1.273-2.866 2.843v.057a2.854 2.854 0 0 0 2.866 2.843h12.601c1.583 0 2.866-1.273 2.866-2.843v-.057c0-1.57-1.283-2.843-2.866-2.843zm.935 36.371H8.688a.961.961 0 0 1-.965-.957v-.957c0-.528.432-.957.965-.957H28.95c.533 0 .965.429.965.957v.957a.961.961 0 0 1-.965.957zM50.655 52l-7.72 8.614a1.926 1.926 0 0 1-1.442.642 1.93 1.93 0 0 1-1.205-.42l-4.824-3.828a1.903 1.903 0 0 1-.301-2.69 1.937 1.937 0 0 1 2.712-.299l3.393 2.693 6.503-7.256a1.937 1.937 0 0 1 2.724-.159 1.904 1.904 0 0 1 .16 2.703zM27.021 49.77H8.688a.961.961 0 0 1-.965-.957v-.958c0-.528.432-.957.965-.957H27.02c.532 0 .964.429.964.957v.958a.961.961 0 0 1-.964.957zM20.266 3.348a1.441 1.441 0 0 0 1.448 1.436c.799 0 1.447-.642 1.447-1.436a1.441 1.441 0 0 0-1.447-1.435 1.441 1.441 0 0 0-1.448 1.435zm22.929 35.927h-.005" fill="#84bc22" fill-rule="evenodd"/></svg>