<svg width="60.993" height="59.009" xmlns="http://www.w3.org/2000/svg"><path d="M52.184 49.54l8.5-15.08c.85-2.36-.161-5.06-1.74-7.612a25.698 25.698 0 0 0-.345-.542l-4.582-7.383-12.162 7.652 8.59 14.06c1.479 2.091 2.79 5.221 1.739 8.904zM37.442.173L20.222 0a6.317 6.317 0 0 0-3.56 2.074c-.886.941-1.66 2.122-2.342 3.39a26.47 26.47 0 0 0-.171.325l-4.192 7.614 12.543 7L30.55 6.022c.97-2.04 2.702-4.358 5.639-5.469a9.8 9.8 0 0 1 1.254-.38zM.878 36.004l8.198 15.249a6.305 6.305 0 0 0 3.5 2.121c1.184.311 2.507.427 3.865.427.203 0 .405-.002.608-.007h8.646v-14.44L9.3 39.24c-2.507.152-5.777-.369-8.306-3.107a10.237 10.237 0 0 1-.116-.127zM38.191 59.01l.506-4.851 7.742-.605a3.993 3.993 0 0 0 1.788-.488c2.17-1.204 2.808-4.327 2.716-6.162l-.002-.048c-.128-2.218-1.613-4.851-3.133-7.228l-9.684.093-.271-4.362-6.9 12.207 7.238 11.444zM.317 19.04l3.818 3.003-3.594 6.93c-.158.28-.285.576-.378.884-.857 2.871 1.85 5.526 3.635 6.51a8.09 8.09 0 0 0 2.218.776c1.44.306 3.095.385 4.724.385.269 0 .538-.002.806-.006l5.053-8.317 3.818 2.08-6.625-12.361-13.475.116zM52.452 7.904l-4.46 1.906-4.278-6.524a4.126 4.126 0 0 0-.973-1.111c-2.114-1.665-5.408-.636-7.026.393l-.002.001c-1.866 1.188-3.433 3.773-4.76 6.264l4.775 8.482-3.657 2.354 13.949.158 6.432-11.923z" fill="#84bc22" fill-rule="evenodd"/></svg>